DataType=double
version=3
OpenSimVersion=4.2-2021-03-12-fcedec9
endheader
time	ground_force_r_vx	ground_force_r_vy	ground_force_r_vz	ground_force_r_px	ground_force_r_py	ground_force_r_pz	ground_force_l_vx	ground_force_l_vy	ground_force_l_vz	ground_force_l_px	ground_force_l_py	ground_force_l_pz	ground_torque_r_x	ground_torque_r_y	ground_torque_r_z	ground_torque_l_x	ground_torque_l_y	ground_torque_l_z
1.14004280566684	0	0	0	0	0	0	-367.4268375529783	180.898450864924	0	0	0	0	0	0	0	0	0	-0.4253552471231465
1.141403019695175	0	0	0	0	0	0	-835.3964393598369	386.8145170537375	0	0	0	0	0	0	0	0	0	-3.218339793147357
1.142763233723509	0	0	0	0	0	0	-1549.352378584892	713.0238275634669	0	0	0	0	0	0	0	0	0	-6.47029462371926
1.144123447751843	0	0	0	0	0	0	-2312.381415283877	1087.323174063162	0	0	0	0	0	0	0	0	0	-6.823768279771308
1.145483661780177	0	0	0	0	0	0	-2993.565583026507	1465.641400992716	0	0	0	0	0	0	0	0	0	-2.967947950536963
1.146843875808511	0	0	0	0	0	0	-3580.975992525748	1840.466182040422	0	0	0	0	0	0	0	0	0	4.383830979856672
1.148204089836846	0	0	0	0	0	0	-4036.077111018529	2203.319289806428	0	0	0	0	0	0	0	0	0	15.58084408218513
1.14956430386518	0	0	0	0	0	0	-4240.224776252343	2530.521693654375	0	0	0	0	0	0	0	0	0	32.16762822592744
1.150924517893514	0	0	0	0	0	0	-4132.31027063079	2810.91410934496	0	0	0	0	0	0	0	0	0	55.13698334058472
1.152284731921848	0	0	0	0	0	0	-3796.503114135664	3054.675597388554	0	0	0	0	0	0	0	0	0	83.67023984427621
1.153644945950183	0	0	0	0	0	0	-3431.683797337389	3298.730663538172	0	0	0	0	0	0	0	0	0	115.9482020785006
1.155005159978517	0	0	0	0	0	0	-2689.149234326575	3597.696820127775	0	0	0	0	0	0	0	0	0	158.8542275446511
1.156365374006851	0	0	0	0	0	0	-647.8085831945517	3953.683408187081	0	0	0	0	0	0	0	0	0	214.7115749295818
1.157725588035185	0	0	0	0	0	0	-566.2645483926709	4291.745877962071	0	0	0	0	0	0	0	0	0	243.1401781309143
1.159085802063519	0	0	0	0	0	0	-480.4535286292125	4532.625715641284	0	0	0	0	0	0	0	0	0	264.7460538508201
1.160446016091853	0	0	0	0	0	0	-416.2686635875768	4639.475113696871	0	0	0	0	0	0	0	0	0	277.2071686798495
1.161806230120188	0	0	0	0	0	0	-366.2540950807367	4673.561148299652	0	0	0	0	0	0	0	0	0	287.9867445189423
1.163166444148522	0	0	0	0	0	0	-347.0071911939476	4678.521709722227	0	0	0	0	0	0	0	0	0	302.5783909551319
1.164526658176856	0	0	0	0	0	0	-337.2591878558598	4659.911315341541	0	0	0	0	0	0	0	0	0	318.875773401162
1.16588687220519	0	0	0	0	0	0	-324.8025473480077	4627.461238052701	0	0	0	0	0	0	0	0	0	334.3849558405353
1.167247086233524	0	0	0	0	0	0	-315.8842665172037	4554.687846661802	0	0	0	0	0	0	0	0	0	347.9550713937602
1.168607300261859	0	0	0	0	0	0	-316.4958505915047	4466.643624246433	0	0	0	0	0	0	0	0	0	361.5983294747933
1.169967514290193	0	0	0	0	0	0	-310.105227790099	4405.679135694802	0	0	0	0	0	0	0	0	0	379.2136000322508
1.171327728318527	0	0	0	0	0	0	-311.9493040012778	4349.301066550213	0	0	0	0	0	0	0	0	0	398.8756038711765
1.172687942346861	0	0	0	0	0	0	-297.3650980910016	4277.478313870402	0	0	0	0	0	0	0	0	0	414.7111410390375
1.174048156375195	0	0	0	0	0	0	-261.3494668567259	4210.850006325914	0	0	0	0	0	0	0	0	0	425.8329865341407
1.17540837040353	0	0	0	0	0	0	-213.1578920415434	4141.18379315027	0	0	0	0	0	0	0	0	0	434.6721738246305
1.176768584431864	0	0	0	0	0	0	-176.8141391541286	4054.400045011214	0	0	0	0	0	0	0	0	0	441.6661245753014
1.178128798460198	0	0	0	0	0	0	-133.8038455433333	3966.429973810422	0	0	0	0	0	0	0	0	0	448.0518163717692
1.179489012488532	0	0	0	0	0	0	-105.8357597475972	3874.559648409548	0	0	0	0	0	0	0	0	0	453.7828596500754
1.180849226516866	0	0	0	0	0	0	-75.61328814156724	3786.900861835643	0	0	0	0	0	0	0	0	0	459.8363043269787
1.182209440545201	0	0	0	0	0	0	-85.65310212541206	3708.686983988694	0	0	0	0	0	0	0	0	0	465.8037956318389
1.183569654573535	0	0	0	0	0	0	-92.38516981620137	3638.743695183527	0	0	0	0	0	0	0	0	0	472.3817121519686
1.184929868601869	0	0	0	0	0	0	-155.8744453113232	3579.688539899167	0	0	0	0	0	0	0	0	0	479.0263690204055
1.186290082630203	0	0	0	0	0	0	-168.1684374371382	3522.879662266147	0	0	0	0	0	0	0	0	0	488.3590229740763
1.187650296658537	0	0	0	0	0	0	-204.1236991351777	3462.645646400045	0	0	0	0	0	0	0	0	0	497.4665946593375
1.189010510686872	0	0	0	0	0	0	-205.4163703277106	3413.62592374583	0	0	0	0	0	0	0	0	0	507.7980139468939
1.190370724715206	0	0	0	0	0	0	-199.5094558952476	3376.50444965695	0	0	0	0	0	0	0	0	0	517.8506091408264
1.19173093874354	0	0	0	0	0	0	-174.9103604292443	3346.055363515107	0	0	0	0	0	0	0	0	0	528.1067686273145
1.193091152771874	0	0	0	0	0	0	-155.6265480926688	3306.909847941124	0	0	0	0	0	0	0	0	0	535.9055484364013
1.194451366800208	0	0	0	0	0	0	-101.2484416476389	3241.752785142431	0	0	0	0	0	0	0	0	0	540.2727998668497
1.195811580828543	0	0	0	0	0	0	-30.04159551468146	3144.103954429347	0	0	0	0	0	0	0	0	0	540.8610829050983
1.197171794856877	0	0	0	0	0	0	31.30685846909772	3094.793015806025	0	0	0	0	0	0	0	0	0	543.2420394029009
1.198532008885211	0	0	0	0	0	0	86.62057646158689	3109.507353226094	0	0	0	0	0	0	0	0	0	548.4704154349175
1.199892222913545	0	0	0	0	0	0	149.4583078372696	3126.996670172992	0	0	0	0	0	0	0	0	0	554.57029197372
1.201252436941879	0	0	0	0	0	0	215.2855550702454	3142.946962293729	0	0	0	0	0	0	0	0	0	560.9563248253972
1.202612650970214	0	0	0	0	0	0	278.8021672662324	3156.984093965106	0	0	0	0	0	0	0	0	0	567.2190736445965
1.203972864998548	0	0	0	0	0	0	339.8629597763499	3168.635770388572	0	0	0	0	0	0	0	0	0	573.1564732199831
1.205333079026882	0	0	0	0	0	0	402.1368735187148	3176.00114743025	0	0	0	0	0	0	0	0	0	578.4320934889809
1.206693293055216	0	0	0	0	0	0	465.63455792326	3179.210242245962	0	0	0	0	0	0	0	0	0	583.020119471656
1.20805350708355	0	0	0	0	0	0	530.2767462202094	3179.502585594352	0	0	0	0	0	0	0	0	0	587.1376499854565
1.209413721111884	0	0	0	0	0	0	594.9091107708472	3176.564318081951	0	0	0	0	0	0	0	0	0	590.7309369541814
1.210773935140219	0	0	0	0	0	0	659.1977623141709	3170.056998784846	0	0	0	0	0	0	0	0	0	593.7822030332864
1.212134149168553	0	0	0	0	0	0	721.2907435926517	3159.615894667015	0	0	0	0	0	0	0	0	0	596.2221217033183
1.213494363196887	0	0	0	0	0	0	782.1652772110547	3146.172041277303	0	0	0	0	0	0	0	0	0	598.1916019967027
1.214854577225221	0	0	0	0	0	0	842.3823699196059	3130.604305289009	0	0	0	0	0	0	0	0	0	599.8175687154687
1.216214791253556	0	0	0	0	0	0	901.9796417747237	3110.796344262497	0	0	0	0	0	0	0	0	0	600.7133157829521
1.21757500528189	0	0	0	0	0	0	959.2503507562617	3087.261362191954	0	0	0	0	0	0	0	0	0	600.9073175995494
1.218935219310224	0	0	0	0	0	0	1014.265098100767	3060.533026964813	0	0	0	0	0	0	0	0	0	600.6200410794521
1.220295433338558	0	0	0	0	0	0	1063.868522368779	3028.678018863175	0	0	0	0	0	0	0	0	0	599.5476650923728
1.221655647366892	0	0	0	0	0	0	1105.591983381538	2992.211428618667	0	0	0	0	0	0	0	0	0	597.7205410348664
1.223015861395227	0	0	0	0	0	0	1139.222997746875	2950.680902220991	0	0	0	0	0	0	0	0	0	595.0423799905278
1.224376075423561	0	0	0	0	0	0	1164.715627174843	2904.045296913558	0	0	0	0	0	0	0	0	0	591.4598868558281
1.225736289451895	0	0	0	0	0	0	1182.712416171577	2852.804994746597	0	0	0	0	0	0	0	0	0	587.0384064049886
1.227096503480229	0	0	0	0	0	0	1191.9980334202	2796.546979966991	0	0	0	0	0	0	0	0	0	581.6611545625605
1.228456717508563	0	0	0	0	0	0	1193.071776572492	2734.566575768348	0	0	0	0	0	0	0	0	0	575.195322518102
1.229816931536898	0	0	0	0	0	0	1191.08012013479	2662.990491069624	0	0	0	0	0	0	0	0	0	567.1071990800826
1.231177145565232	0	0	0	0	0	0	1189.842272704031	2571.331423874036	0	0	0	0	0	0	0	0	0	555.1815458898665
1.232537359593566	0	0	0	0	0	0	1198.965916760168	2533.914875273141	0	0	0	0	0	0	0	0	0	549.6202018230033
1.2338975736219	0	0	0	0	0	0	1206.769619184345	2503.826851372363	0	0	0	0	0	0	0	0	0	545.2555431120276
1.235257787650235	0	0	0	0	0	0	1217.679485096088	2468.596171984827	0	0	0	0	0	0	0	0	0	540.2204836604909
1.236618001678569	0	0	0	0	0	0	1229.426178603225	2431.367671754403	0	0	0	0	0	0	0	0	0	534.9228037994451
1.237978215706903	0	0	0	0	0	0	1238.488136100238	2393.713206736623	0	0	0	0	0	0	0	0	0	529.4801450474718
1.239338429735237	0	0	0	0	0	0	1245.102617312419	2355.658523472754	0	0	0	0	0	0	0	0	0	523.8945976257886
1.240698643763571	0	0	0	0	0	0	1249.583373468296	2316.878526591464	0	0	0	0	0	0	0	0	0	518.106529885252
1.242058857791906	0	0	0	0	0	0	1254.599109051157	2277.139911731444	0	0	0	0	0	0	0	0	0	512.2178888478649
1.24341907182024	0	0	0	0	0	0	1259.108020319836	2236.410383602698	0	0	0	0	0	0	0	0	0	506.1622121428002
1.244779285848574	0	0	0	0	0	0	1257.08014112075	2190.470203929454	0	0	0	0	0	0	0	0	0	498.7406533649619
1.246139499876908	0	0	0	0	0	0	1242.222513790121	2132.244709021146	0	0	0	0	0	0	0	0	0	488.1472197544824
1.247499713905242	0	0	0	0	0	0	1221.971270112447	2068.34896464571	0	0	0	0	0	0	0	0	0	476.0833780608679
1.248859927933577	0	0	0	0	0	0	1203.653830942146	2005.827401415158	0	0	0	0	0	0	0	0	0	464.379497752391
1.250220141961911	0	0	0	0	0	0	1184.545184720322	1943.289233883556	0	0	0	0	0	0	0	0	0	452.5800543579684
1.251580355990245	0	0	0	0	0	0	1160.655479023927	1874.705020290857	0	0	0	0	0	0	0	0	0	439.2456279966198
1.252940570018579	0	0	0	0	0	0	1135.89553158301	1802.54108537762	0	0	0	0	0	0	0	0	0	425.1333879063178
1.254300784046913	0	0	0	0	0	0	1113.48638674262	1736.566410602577	0	0	0	0	0	0	0	0	0	412.31124290108
1.255660998075248	0	0	0	0	0	0	1090.777339357652	1674.722353921145	0	0	0	0	0	0	0	0	0	400.1705427310443
1.257021212103582	0	0	0	0	0	0	1066.808436030409	1613.48798649586	0	0	0	0	0	0	0	0	0	387.9725436416772
1.258381426131916	0	0	0	0	0	0	1038.590100516061	1548.982771682442	0	0	0	0	0	0	0	0	0	374.7299792556117
1.25974164016025	0	0	0	0	0	0	1002.000062250679	1473.46387185338	0	0	0	0	0	0	0	0	0	358.650728496117
1.261101854188584	0	0	0	0	0	0	955.6747689957033	1390.506292182614	0	0	0	0	0	0	0	0	0	340.198531514095
1.262462068216919	0	0	0	0	0	0	899.4533232422002	1307.317484982739	0	0	0	0	0	0	0	0	0	320.5455684758302
1.263822282245253	0	0	0	0	0	0	837.9003311284187	1222.303515074074	0	0	0	0	0	0	0	0	0	299.8231761702553
1.265182496273587	0	0	0	0	0	0	776.158042791921	1129.852392440001	0	0	0	0	0	0	0	0	0	277.6358812353215
1.266542710301921	0	0	0	0	0	0	712.9610241465555	1035.394173180807	0	0	0	0	0	0	0	0	0	254.7979042692762
1.267902924330255	0	0	0	0	0	0	642.3609239887068	956.4965246170202	0	0	0	0	0	0	0	0	0	233.4605702670285
1.26926313835859	0	0	0	0	0	0	530.8897687725478	852.6716126450368	0	0	0	0	0	0	0	0	0	202.7645617783385
1.270623352386924	0	0	0	0	0	0	372.3801415317149	651.6104831362696	0	0	0	0	0	0	0	0	0	150.3318825349903
1.271983566415258	0	0	0	0	0	0	215.8205325124525	381.5782088642598	0	0	0	0	0	0	0	0	0	87.42245588471368
1.273343780443592	0	0	0	0	0	0	68.92458756599885	107.186239706272	0	0	0	0	0	0	0	0	0	25.59270622755269
1.274703994471926	0	0	0	0	0	0	-1.855781884742298	-2.417040622606343	0	0	0	0	0	0	0	0	0	-0.6178076997144167
1.27606420850026	0	0	0	0	0	0	-1.487388365599018e-08	-5.820089470182928e-08	0	0	0	0	0	0	0	0	0	-1.051189825734162e-08
1.277424422528595	0	0	0	0	0	0	0	0	0	0	0	0	0	0	0	0	0	0
1.278784636556929	0	0	0	0	0	0	0	0	0	0	0	0	0	0	0	0	0	0
1.280144850585263	0	0	0	0	0	0	0	0	0	0	0	0	0	0	0	0	0	0
1.281505064613597	0	0	0	0	0	0	0	0	0	0	0	0	0	0	0	0	0	0
1.282865278641931	0	0	0	0	0	0	0	0	0	0	0	0	0	0	0	0	0	0
1.284225492670266	0	0	0	0	0	0	0	0	0	0	0	0	0	0	0	0	0	0
1.2855857066986	0	0	0	0	0	0	0	0	0	0	0	0	0	0	0	0	0	0
1.286945920726934	0	0	0	0	0	0	0	0	0	0	0	0	0	0	0	0	0	0
1.288306134755268	0	0	0	0	0	0	0	0	0	0	0	0	0	0	0	0	0	0
1.289666348783602	0	0	0	0	0	0	0	0	0	0	0	0	0	0	0	0	0	0
1.291026562811937	0	0	0	0	0	0	0	0	0	0	0	0	0	0	0	0	0	0
1.292386776840271	0	0	0	0	0	0	0	0	0	0	0	0	0	0	0	0	0	0
1.293746990868605	0	0	0	0	0	0	0	0	0	0	0	0	0	0	0	0	0	0
1.295107204896939	0	0	0	0	0	0	0	0	0	0	0	0	0	0	0	0	0	0
1.296467418925273	0	0	0	0	0	0	0	0	0	0	0	0	0	0	0	0	0	0
1.297827632953608	0	0	0	0	0	0	0	0	0	0	0	0	0	0	0	0	0	0
1.299187846981942	0	0	0	0	0	0	0	0	0	0	0	0	0	0	0	0	0	0
1.300548061010276	0	0	0	0	0	0	0	0	0	0	0	0	0	0	0	0	0	0
1.30190827503861	0	0	0	0	0	0	0	0	0	0	0	0	0	0	0	0	0	0
1.303268489066944	0	0	0	0	0	0	0	0	0	0	0	0	0	0	0	0	0	0
1.304628703095279	0	0	0	0	0	0	0	0	0	0	0	0	0	0	0	0	0	0
1.305988917123613	0	0	0	0	0	0	0	0	0	0	0	0	0	0	0	0	0	0
1.307349131151947	0	0	0	0	0	0	0	0	0	0	0	0	0	0	0	0	0	0
1.308709345180281	0	0	0	0	0	0	0	0	0	0	0	0	0	0	0	0	0	0
1.310069559208615	0	0	0	0	0	0	0	0	0	0	0	0	0	0	0	0	0	0
1.31142977323695	0	0	0	0	0	0	0	0	0	0	0	0	0	0	0	0	0	0
1.312789987265284	0	0	0	0	0	0	0	0	0	0	0	0	0	0	0	0	0	0
1.314150201293618	0	0	0	0	0	0	0	0	0	0	0	0	0	0	0	0	0	0
1.315510415321953	0	0	0	0	0	0	0	0	0	0	0	0	0	0	0	0	0	0
1.316870629350287	0	0	0	0	0	0	0	0	0	0	0	0	0	0	0	0	0	0
1.318230843378621	0	0	0	0	0	0	0	0	0	0	0	0	0	0	0	0	0	0
